<svg width="51" height="47" viewBox="0 0 51 47" fill="none" xmlns="http://www.w3.org/2000/svg">
<path d="M46.887 21.1162C47.0622 20.9394 47.2499 20.7752 47.4485 20.6251C47.9153 20.317 48.4788 20.1904 49.0326 20.2692C49.5864 20.3481 50.0922 20.6269 50.4545 21.0532C50.7541 21.4805 50.9321 21.9812 50.9694 22.5018C51.2211 24.4159 49.8825 25.9729 48.28 26.7056C48.0458 26.8127 47.7984 26.8917 47.5545 26.9763C47.4172 27.0239 47.3416 27.0803 47.3654 27.2541C47.4729 28.2113 47.462 29.1781 47.3328 30.1326C47.0394 32.6421 46.3896 35.0969 45.4029 37.423C44.6672 39.2668 43.6673 40.9939 42.4344 42.5499C41.3394 43.9804 39.9158 45.1261 38.2842 45.8899C36.7957 46.5546 35.1458 46.7712 33.5361 46.5133C32.3433 46.2991 31.2333 45.7584 30.3292 44.9514C29.952 44.6362 29.6028 44.2871 29.2544 43.9656C28.8032 44.3198 28.3701 44.7101 27.8894 45.0284C26.2004 46.1471 24.3607 46.7999 22.3068 46.6214C21.0595 46.4969 19.8607 46.0731 18.8123 45.386C16.8143 44.1237 15.7273 42.2399 15.1969 39.9857C14.8088 38.1166 14.7125 36.1986 14.9114 34.3C15.0873 32.1003 15.4354 29.9178 15.9523 27.7725C16.5431 25.2757 17.2049 22.7956 17.8535 20.3128C18.2838 18.6654 18.7451 17.0262 19.1911 15.383C19.2068 15.3057 19.2183 15.2277 19.2257 15.1492C18.8614 15.1197 18.5119 15.0798 18.1614 15.0652C16.8972 15.0024 15.6299 15.0474 14.3733 15.1999C12.4022 15.4543 10.5004 15.925 8.77634 16.9661C7.6154 17.7169 6.63636 18.7169 5.91042 19.8935C4.896 21.41 4.59878 23.1064 4.67634 24.8948C4.80763 27.9228 6.89058 30.0098 9.55083 30.7033C9.79907 30.7681 10.0578 30.7928 10.3515 30.843C10.3056 30.9024 10.2558 30.9586 10.2024 31.0112C8.80342 32.1747 7.4034 33.337 6.00236 34.4981C5.63528 34.8016 5.25104 35.0847 4.88772 35.3926C4.80078 35.4707 4.69425 35.5237 4.57952 35.546C4.46478 35.5682 4.34616 35.5589 4.23633 35.5189C2.23123 34.9325 0.988224 33.5956 0.372936 31.6258C-0.154097 29.9383 -0.0561207 28.2425 0.257974 26.5367C0.729397 23.9299 1.73106 21.4476 3.20091 19.2436C4.38636 17.4997 5.79472 15.9183 7.39018 14.5396C9.35525 12.8214 11.5365 11.3675 13.8785 10.2148C15.8018 9.2342 17.8589 8.54202 19.9837 8.16048C21.7052 7.86312 23.4421 7.65452 25.1731 7.41393C27.0509 7.15304 28.931 6.90905 30.8079 6.64248C32.7983 6.37147 34.7704 5.97958 36.7132 5.46897C38.6501 4.99734 40.4991 4.21892 42.1901 3.16322C43.2231 2.49025 44.1397 1.65385 44.9043 0.686748C44.9788 0.592422 45.0621 0.504963 45.198 0.349487C45.198 0.718118 45.1954 1.01389 45.1984 1.30952C45.2433 3.05165 45.0838 4.79303 44.7232 6.49803C44.1801 8.89257 43.1354 11.0105 41.2733 12.665C40.044 13.7279 38.5966 14.5082 37.0329 14.9509C35.8818 15.3063 34.6927 15.5242 33.4904 15.6001C32.3849 15.6648 31.2742 15.6533 30.1658 15.6522C29.6211 15.6517 29.0767 15.5885 28.5317 15.579C28.4729 15.5869 28.4167 15.6083 28.3676 15.6415C28.3184 15.6747 28.2775 15.7187 28.2482 15.7703C27.4549 17.4731 26.6692 19.1793 25.8911 20.8891C24.7743 23.3396 23.7463 25.8258 22.8721 28.3749C22.2659 30.097 21.7913 31.8626 21.4525 33.6566C21.0843 35.354 21.0166 37.1028 21.2524 38.8235C21.4269 40.1782 22.0944 41.4211 23.1274 42.3147C23.434 42.5923 23.7938 42.8047 24.185 42.9392C24.5761 43.0736 24.9905 43.1272 25.403 43.0968C25.8155 43.0663 26.2175 42.9524 26.5847 42.762C26.9519 42.5716 27.2766 42.3087 27.5392 41.9891C27.5974 41.9337 27.6317 41.8578 27.6349 41.7775C27.638 41.6972 27.6098 41.6188 27.5562 41.559C26.8291 40.3183 26.2878 38.9777 25.9495 37.58C25.4438 35.4687 25.3327 33.3503 25.9739 31.2434C26.3785 29.7312 27.282 28.3999 28.5379 27.4655C29.5567 26.6875 30.8301 26.3197 32.1067 26.4348C34.1799 26.6534 35.6742 27.6595 36.315 29.8598C36.7709 31.5428 36.6752 33.3275 36.0419 34.952C35.2419 37.246 33.8822 39.1985 32.3038 41.0142C32.1788 41.1581 32.0577 41.307 31.9197 41.4374C31.8046 41.5463 31.8109 41.6208 31.9131 41.7382C32.3206 42.1687 32.8602 42.4508 33.4462 42.5397C34.6445 42.8004 35.7088 42.4221 36.7202 41.8462C38.1852 41.012 39.1721 39.7306 39.9536 38.2728C40.562 37.1444 41.0043 35.9341 41.2667 34.6793C41.8456 32.1316 41.7227 29.4747 40.911 26.9914C40.627 26.1797 40.1921 25.429 39.6292 24.7789C39.3267 24.4344 39.0522 24.0662 38.8085 23.6778C38.6503 23.4353 38.5697 23.1505 38.5772 22.8611C38.5848 22.5717 38.6802 22.2914 38.8508 22.0575C39.7694 20.7167 40.9888 19.8932 42.675 19.9679C43.0793 19.9941 43.4742 20.1014 43.8362 20.2834C44.1982 20.4654 44.5198 20.7184 44.782 21.0273C45.2676 21.5551 45.687 22.1433 46.1517 22.691C46.3001 22.885 46.4934 23.0401 46.715 23.1428C46.9366 23.2455 47.1799 23.2928 47.4238 23.2806C47.5376 23.2806 47.6498 23.2533 47.7509 23.201C47.8519 23.1487 47.939 23.0729 48.0046 22.98C48.0703 22.887 48.1127 22.7797 48.1283 22.6669C48.1439 22.5542 48.1322 22.4394 48.0942 22.3321C48.0263 22.1118 47.9145 21.9076 47.7654 21.7318C47.6163 21.556 47.4331 21.4123 47.2268 21.3093C47.139 21.2587 47.0505 21.209 46.887 21.1162ZM30.1622 38.1274C30.2722 37.9963 30.3336 37.9279 30.3898 37.8556C31.0085 37.0631 31.5196 36.1922 31.9099 35.2656C32.2407 34.5197 32.4234 33.7166 32.4478 32.901C32.4574 32.2119 32.1819 31.7019 31.6975 31.505C31.4313 31.4077 31.1422 31.3919 30.8669 31.4593C30.5917 31.5268 30.3426 31.6745 30.1515 31.8838C29.8715 32.218 29.692 32.6248 29.6338 33.057C29.4048 34.5065 29.4956 35.9886 29.9 37.3994C29.9595 37.6275 30.0592 37.8449 30.1622 38.1274Z" fill="white"/>
</svg>
